<?xml version="1.0" encoding="iso-8859-1"?>
<!-- Generator: Adobe Illustrator 19.0.0, SVG Export Plug-In . SVG Version: 6.00 Build 0)  -->
<svg version="1.1" id="favico" xmlns="http://www.w3.org/2000/svg" xmlns:xlink="http://www.w3.org/1999/xlink" x="0px" y="0px"
	 viewBox="0 0 492.308 492.308" style="enable-background:new 0 0 492.308 492.308; " xml:space="preserve">

<style>
g > * {
	fill: #000;
}
 @media (prefers-color-scheme: dark) {
      g > * {
        fill: #fff;
      }

</style>
<g>
	<g>
		<path d="M0,0v492.308h492.308V0H0z M472.615,472.615H19.692V19.692h452.923V472.615z"/>
	</g>
</g>
<g>
	<g>
		<path d="M140.308,49.231c-50.216,0-91.072,40.856-91.072,91.077c0,50.221,40.856,91.077,91.077,91.077
			c50.221,0,91.077-40.856,91.077-91.077C231.389,90.087,190.529,49.231,140.308,49.231z M140.308,211.692
			c-39.361,0-71.38-32.024-71.38-71.385c0-39.361,32.019-71.385,71.38-71.385h0.005c39.361,0,71.385,32.024,71.385,71.385
			C211.697,179.668,179.673,211.692,140.308,211.692z"/>
	</g>
</g>
<g>
	<g>
		<path d="M352,49.231c-50.216,0-91.072,40.856-91.072,91.077c0,50.221,40.856,91.077,91.077,91.077
			c50.221,0,91.077-40.856,91.077-91.077C443.082,90.087,402.221,49.231,352,49.231z M352,211.692
			c-39.361,0-71.38-32.024-71.38-71.385c0-39.361,32.019-71.385,71.38-71.385h0.005c39.361,0,71.385,32.024,71.385,71.385
			C423.389,179.668,391.365,211.692,352,211.692z"/>
	</g>
</g>
<g>
	<g>
		<path d="M140.308,260.923c-50.216,0-91.072,40.856-91.072,91.077c0,50.221,40.856,91.077,91.077,91.077
			c50.221,0,91.077-40.856,91.077-91.077C231.389,301.779,190.529,260.923,140.308,260.923z M140.308,423.385
			c-39.361,0-71.38-32.024-71.38-71.385c0-39.361,32.019-71.385,71.38-71.385h0.005c39.361,0,71.385,32.024,71.385,71.385
			C211.697,391.361,179.673,423.385,140.308,423.385z"/>
	</g>
</g>
<g>
	<g>
		<path d="M352,260.923c-50.216,0-91.072,40.856-91.072,91.077c0,50.221,40.856,91.077,91.077,91.077
			c50.221,0,91.077-40.856,91.077-91.077C443.082,301.779,402.221,260.923,352,260.923z M352,423.385
			c-39.361,0-71.38-32.024-71.38-71.385c0-39.361,32.019-71.385,71.38-71.385h0.005c39.361,0,71.385,32.024,71.385,71.385
			C423.389,391.361,391.365,423.385,352,423.385z"/>
	</g>
</g>
<g>
	<g>
		<polygon points="150.159,130.462 150.159,93.865 130.466,93.865 130.466,130.462 93.87,130.462 93.87,150.154 130.466,150.154
			130.466,186.745 150.159,186.745 150.159,150.154 186.75,150.154 186.75,130.462 		"/>
	</g>
</g>
<g>
	<g>
		<rect x="305.526" y="130.462" width="92.879" height="19.692"/>
	</g>
</g>
<g>
	<g>
		<polygon points="180.111,326.125 166.187,312.202 140.31,338.078 114.433,312.202 100.51,326.125 126.386,352 100.51,377.875
			114.433,391.798 140.31,365.922 166.187,391.798 180.111,377.875 154.234,352 		"/>
	</g>
</g>
<g>
	<g>

			<rect x="316.527" y="316.177" transform="matrix(0.7071 -0.7071 0.7071 0.7071 -134.9405 326.271)" width="19.692" height="19.692"/>
	</g>
</g>
<g>
	<g>

			<rect x="367.737" y="367.377" transform="matrix(0.7071 -0.7071 0.7071 0.7071 -156.1455 377.4776)" width="19.692" height="19.692"/>
	</g>
</g>
<g>
	<g>

			<rect x="305.822" y="342.05" transform="matrix(0.7071 -0.7071 0.7071 0.7071 -145.6534 352.1545)" width="92.879" height="19.692"/>
	</g>
</g>
<g>
</g>
<g>
</g>
<g>
</g>
<g>
</g>
<g>
</g>
<g>
</g>
<g>
</g>
<g>
</g>
<g>
</g>
<g>
</g>
<g>
</g>
<g>
</g>
<g>
</g>
<g>
</g>
<g>
</g>


</svg>
